<?xml version="1.0" encoding="utf-8"?>
<!-- Generator: Adobe Illustrator 17.0.0, SVG Export Plug-In . SVG Version: 6.00 Build 0)  -->
<!DOCTYPE svg PUBLIC "-//W3C//DTD SVG 1.1//EN" "http://www.w3.org/Graphics/SVG/1.1/DTD/svg11.dtd">
<svg version="1.1" id="Layer_2" xmlns="http://www.w3.org/2000/svg" xmlns:xlink="http://www.w3.org/1999/xlink" x="0px" y="0px"
	 width="800px" height="600px" viewBox="0 0 800 600" enable-background="new 0 0 800 600" xml:space="preserve">
<polygon fill="#362C3B" points="127,341 190.833,399 271.125,310 248.292,302 177.167,338.833 "/>
<polygon fill="#362D42" points="192.056,260.667 177.167,338.833 248.292,302 "/>
<path fill="#36304D" d="M242,272"/>
<line fill="#36304D" x1="208" y1="272" x2="248.292" y2="302"/>
<path fill="none" stroke="#FFFFFF" stroke-miterlimit="10" d="M217,270"/>
<path fill="#3C356A" d="M210,260"/>
<path fill="#3C356A" d="M240.146,258"/>
<polygon fill="#362C3F" points="130.4,324 130.4,324 192.056,260.667 177.167,338.833 "/>
<polygon fill="#362C3A" points="124,338 130.4,324 177.167,338.833 127,341 "/>
<polygon fill="#362D42" points="104,334 124,338 130.4,324 "/>
<polygon fill="#362D43" points="79.667,320 95.833,244 106,250 "/>
<polygon fill="#362C40" points="192.056,260.667 106,250 79.667,320 104,334 130.4,324 "/>
<polygon fill="#352E4B" points="154,222 106,250 192.056,260.667 "/>
<polygon fill="#3D4170" points="175.2,208 154,222 184,220 "/>
<polygon fill="#373159" points="192.056,260.667 184,220 154,222 "/>
<polygon fill="#3A3B6C" points="132.4,222 175.2,208 154,222 "/>
<polygon fill="#362E4F" points="95.833,244 132.4,222 154,222 106,250 "/>
<polygon fill="#352D4C" points="100.222,165.111 95.833,244 132.4,222 "/>
<polygon fill="#342A42" points="100.222,165.111 100.222,165.111 132.4,222 "/>
<polygon fill="#393261" points="175.2,208 100.222,165.111 132.4,222 "/>
<polygon fill="#342C5B" points="181.6,82 100.222,165.111 175.2,208 "/>
<polygon fill="#2F2539" points="98,86 100.222,165.111 181.6,82 "/>
<polygon fill="#362E4A" points="95.833,244 79.667,320 4,286 "/>
<polygon fill="#33293A" points="14,218 95.833,244 5,286 "/>
<polygon fill="#322947" points="100.222,165.111 17,100 98,86 "/>
<polygon fill="#32293E" points="20,194 100.222,165.111 17,100 "/>
<polygon fill="#33293A" points="100.222,165.111 20,194 14,218 95.833,244 "/>
<polygon fill="#342D5C" points="181.6,82 218,10 291.6,94 "/>
<polygon fill="#404A8C" points="374,10 218,10 291.6,94 "/>
<polygon fill="#432E77" points="378,62 291.6,94 374,10 408,10 "/>
<polygon fill="#544696" points="458,76 408,10 378,62 "/>
<polygon fill="#312441" points="408,10 408,10 458,76 460,10 "/>
<polygon fill="#6D58A2" points="506,42 460,10 458,76 "/>
<polygon fill="#333985" points="510,10 460,10 506,42 "/>
<polygon fill="#6F9BB7" points="550,82 510,10 506,42 "/>
<polygon fill="#8196AF" points="613.2,90 642,10 550,82 "/>
<polygon fill="#6472AB" points="510,10 642,10 550,82 "/>
<polygon fill="#B58AAE" points="458,76 476,98 506,42 "/>
<polygon fill="#B4B8B2" points="550,82 506,42 476,98 "/>
<polygon fill="#C4C6B8" points="524,133 550,82 476,98 "/>
<polygon fill="#6766A0" points="524,133 470,114 514,168 "/>
<polygon fill="#C5C6B9" points="476,98 470,114 524,133 "/>
<polygon fill="#C6C5B8" points="458,76 387.333,160.333 470,114 476,98 "/>
<polygon fill="#A5A5A7" points="378,62 387.333,160.333 458,76 "/>
<polygon fill="#6B56A3" points="323.5,100 378,62 387.333,160.333 "/>
<polygon fill="#884F9F" points="332,150 323.5,100 272,154.571 "/>
<polygon fill="#89649B" points="300,180 332,150 272,154.571 "/>
<polygon fill="#8D8497" points="387.333,160.333 332,150 372,226 "/>
<polygon fill="#6E6396" points="431.5,182 387.333,160.333 372,226 "/>
<polygon fill="#9B9E9F" points="470,114 431.5,182 387.333,160.333 "/>
<polygon fill="#5D5596" points="514,168 431.5,182 470,114 "/>
<polygon fill="#C3C4B8" points="613.2,90 580,112 550,82 "/>
<polygon fill="#BBB8AE" points="636,138 580,112 613.2,90 "/>
<polygon fill="#ADACA2" points="599.6,154 580,112 636,138 "/>
<polygon fill="#9DAF9F" points="524,133 580,112 599.6,154 "/>
<polygon fill="#C6C2B4" points="550,82 580,112 524,133 "/>
<polygon fill="#383169" points="514,168 599.6,154 524,133 "/>
<polygon fill="#352C4D" points="605.2,182.8 599.6,154 514,168 "/>
<polygon fill="#626787" points="636,138 599.6,154 605.2,182.8 "/>
<polygon fill="#9E988E" points="650,148 636,138 605.2,182.8 "/>
<polygon fill="#57496E" points="648,212 650,148 605.2,182.8 "/>
<polygon fill="#827D7A" points="668,204 650,148 648,212 "/>
<polygon fill="#362D45" points="605.2,182.8 634,234 648,212 "/>
<polygon fill="#473F5E" points="668,204 648,212 634,234 "/>
<polygon fill="#8F978E" points="636,138 688,128 678,192 650,148 "/>
<polygon fill="#85817F" points="668,204 678,192 650,148 "/>
<polygon fill="#7F7978" points="697.6,190.8 678,192 668,204 "/>
<polygon fill="#667677" points="688,128 678,192 697.6,190.8 "/>
<polygon fill="#849592" points="734,104 688,128 697.6,190.8 "/>
<polygon fill="#2E2143" points="757.5,218.5 734,104 697.6,190.8 "/>
<polygon fill="#A0B0A0" points="682,44 613.2,90 688,128 "/>
<polygon fill="#576FA9" points="642,10 682,44 613.2,90 "/>
<polygon fill="#342B51" points="734,104 682,44 688,128 "/>
<polygon fill="#342E4E" points="760,110 734,104 757.5,218.5 "/>
<polygon fill="#4A596B" points="697.6,190.8 710,234 757.5,218.5 "/>
<polygon fill="#4C4464" points="634,234 668,204 710,234 "/>
<polygon fill="#46455F" points="690,296 710,234 634,234 "/>
<polygon fill="#372D44" points="616,270 634,234 690,296 656,366 "/>
<polygon fill="#3D374B" points="716,356 690,296 656,366 "/>
<polygon fill="#494E67" points="758,260 757.5,218.5 710,234 "/>
<polygon fill="#3E3B55" points="690,296 710,234 758,260 758,288 "/>
<polygon fill="#393246" points="716,356 758,318 758,288 690,296 "/>
<polygon fill="#3B3348" points="758,358 716,356 758,318 "/>
<polygon fill="#422C74" points="181.6,82 272,154.571 291.6,94 "/>
<polygon fill="#4F3386" points="323.5,100 291.6,94 272,154.571 "/>
<polygon fill="#464793" points="272,154.571 175.2,208 181.6,82 "/>
<polygon fill="#3C356A" points="240.146,258 272,154.571 184,220 192.056,260.667 240.146,258 "/>
<polygon fill="#605694" points="300,180 272,154.571 240.146,258 "/>
<polygon fill="#434378" points="306,260 300,180 240.146,258 "/>
<polygon fill="#514A81" points="372,226 300,180 306,260 "/>
<polygon fill="#43396D" points="309.5,318.5 306,260 372,226 "/>
<polygon fill="#5C6A7A" points="376,264 372,226 309.5,318.5 "/>
<polygon fill="#362D44" points="306,260 271.125,310 309.5,318.5 "/>
<polygon fill="#37304F" points="240.146,258 271.125,310 306,260 "/>
<polyline fill="#36304D" points="240.146,258 271.125,310 248.292,302 192.056,260.667 240.146,258 192.056,260.667 
	192.056,260.667 "/>
<polygon fill="#383452" points="309.5,318.5 326.529,352 377.333,380 375.941,264 "/>
<polygon fill="#382E45" points="448,370 413.5,276.5 377.333,380 "/>
<polygon fill="#3D3359" points="376,264 413.5,276.5 377.333,380 "/>
<polygon fill="#41396F" points="372,226 376,264 413.5,276.5 "/>
<polygon fill="#3A3060" points="431.5,182 372,226 413.5,276.5 "/>
<path fill="#37304F" d="M214,276"/>
<path fill="#37304F" d="M244,276"/>
<polygon fill="#9A8BA4" points="323.5,100 332,150 387.333,160.333 "/>
<polygon fill="#7D7698" points="372,226 300,180 332,150 "/>
<polygon fill="#6C726E" points="668,204 697.6,190.8 710,234 "/>
<polygon fill="#929F98" points="613.2,90 636,138 688,128 "/>
<polygon fill="#473890" points="378,62 291.6,94 323.5,100 "/>
<polygon fill="#536188" points="175.2,208 184,220 272,154.571 "/>
</svg>
